name tmp\angles_pectmin2.mot
datacolumns 15
datarows 40
range 0.000000 0.073864
endheader
time  THx THy THz SCy SCz SCx ACy ACz ACx GHy GHz GHyy ELx PSy
0.000000	0.000000	0.000000	0.000000	-51.015040	19.430206	31.527457	58.400287	-3.458009	4.321443	-121.843317	61.788348	162.909709	0.000000	0.000000	
0.001894	0.000000	0.000000	0.000000	-49.650753	18.847935	27.464978	58.618936	-1.098443	5.315424	-118.480993	56.272940	159.293881	0.000000	0.000000	
0.003788	0.000000	0.000000	0.000000	-53.009797	20.572499	35.006150	59.685836	-2.592150	6.998765	-109.477030	71.348542	145.400718	0.000000	0.000000	
0.005682	0.000000	0.000000	0.000000	-53.965613	21.103677	37.474235	60.128258	-2.990342	7.776488	-104.417191	75.312376	141.621446	0.000000	0.000000	
0.007576	0.000000	0.000000	0.000000	-51.173064	19.646224	34.062180	59.148390	-4.374057	4.567548	-113.332360	63.275928	146.124226	0.000000	0.000000	
0.009470	0.000000	0.000000	0.000000	-49.601910	18.829065	27.438495	58.635477	-1.100032	5.306715	-118.240332	56.090158	149.081580	0.000000	0.000000	
0.011364	0.000000	0.000000	0.000000	-48.620411	18.395192	26.398350	58.658674	-1.119853	4.896922	-116.735025	52.076577	153.117541	0.000000	0.000000	
0.013258	0.000000	0.000000	0.000000	-28.779629	10.156269	12.333615	60.954609	-3.139552	-2.679088	52.101159	14.993186	-24.353266	0.000000	0.000000	
0.015152	0.000000	0.000000	0.000000	-30.318517	10.866416	14.636506	61.313983	-3.504792	-2.132022	41.709879	15.423581	-14.181948	0.000000	0.000000	
0.017045	0.000000	0.000000	0.000000	-30.161472	10.730982	13.291046	60.874442	-2.982306	-2.113408	41.388159	13.316908	-12.763012	0.000000	0.000000	
0.018939	0.000000	0.000000	0.000000	-35.559407	12.600578	14.840158	57.994073	-3.379241	-1.679170	-110.775093	7.087731	121.917307	0.000000	0.000000	
0.020833	0.000000	0.000000	0.000000	-34.825491	12.418035	14.140329	58.883971	-2.350536	-0.933761	-71.382271	6.055363	81.724295	0.000000	0.000000	
0.022727	0.000000	0.000000	0.000000	-38.752546	14.045206	16.314366	58.501702	-1.474723	0.797079	-102.151773	16.298326	113.517186	0.000000	0.000000	
0.024621	0.000000	0.000000	0.000000	-44.326129	16.476604	23.623414	58.502263	-2.862056	2.022043	-111.876594	35.212576	122.479578	0.000000	0.000000	
0.026515	0.000000	0.000000	0.000000	-37.940935	13.659708	15.344984	58.274921	-1.597297	0.334240	-105.292277	13.701699	113.483719	0.000000	0.000000	
0.028409	0.000000	0.000000	0.000000	-33.241986	11.733930	13.634321	58.812376	-3.236117	-2.033102	-40.179534	2.957481	44.342704	0.000000	0.000000	
0.030303	0.000000	0.000000	0.000000	-35.855690	12.797916	13.738883	58.497535	-1.658345	-0.324621	-94.303715	8.084893	102.228298	0.000000	0.000000	
0.032197	0.000000	0.000000	0.000000	-42.281325	15.560834	20.956055	58.380537	-2.551924	1.359971	-110.270342	27.741990	118.617217	0.000000	0.000000	
0.034091	0.000000	0.000000	0.000000	-31.370177	10.727900	9.821665	57.430451	-3.077930	-3.018056	137.575679	4.435892	-146.343639	0.000000	0.000000	
0.035985	0.000000	0.000000	0.000000	-29.999107	10.344089	8.217164	58.790430	-1.211150	-1.913416	66.521770	4.971313	-78.974314	0.000000	0.000000	
0.037879	0.000000	0.000000	0.000000	-37.196048	13.238764	16.427996	57.559890	-3.898966	-1.647648	-120.816977	11.265159	112.051832	0.000000	0.000000	
0.039773	0.000000	0.000000	0.000000	-48.221992	18.255360	28.018416	58.843061	-2.594290	4.000071	-113.842071	50.677381	111.821202	0.000000	0.000000	
0.041667	0.000000	0.000000	0.000000	-53.610207	20.915805	38.309579	59.964473	-4.286246	6.700643	-105.716091	73.852699	114.011669	0.000000	0.000000	
0.043561	0.000000	0.000000	0.000000	-50.653806	19.477378	33.667564	59.515781	-4.062041	4.854378	-108.728086	61.216745	111.978986	0.000000	0.000000	
0.045455	0.000000	0.000000	0.000000	-44.345777	16.506962	21.931622	58.668256	-1.233018	3.109210	-110.309876	35.414612	106.419929	0.000000	0.000000	
0.047348	0.000000	0.000000	0.000000	-36.575167	13.093637	14.282156	58.412675	-1.641119	-0.102924	-99.146467	9.940651	90.194206	0.000000	0.000000	
0.049242	0.000000	0.000000	0.000000	-33.715613	11.868615	13.287406	58.373524	-3.087924	-1.959981	-87.516328	2.800350	76.415269	0.000000	0.000000	
0.051136	0.000000	0.000000	0.000000	-40.060360	14.525770	16.932311	57.963664	-1.569851	0.941245	-113.815128	19.918089	106.527123	0.000000	0.000000	
0.053030	0.000000	0.000000	0.000000	-56.224022	22.286641	44.545574	60.604628	-5.567862	8.387649	-96.552036	84.051834	120.272222	0.000000	0.000000	
0.054924	0.000000	0.000000	0.000000	-34.027134	11.851157	11.286048	57.408690	-2.318528	-1.728472	-155.756290	4.586049	145.510791	0.000000	0.000000	
0.056818	0.000000	0.000000	0.000000	-40.734801	14.700940	18.185549	57.193559	-2.968205	-0.072589	-125.970931	21.295180	119.031241	0.000000	0.000000	
0.058712	0.000000	0.000000	0.000000	-48.727697	18.572620	31.016480	59.309972	-3.983178	3.819920	-108.734168	53.112678	109.363019	0.000000	0.000000	
0.060606	0.000000	0.000000	0.000000	-39.367379	14.290716	16.727996	58.373549	-1.471532	0.955499	-105.780244	18.088648	94.836166	0.000000	0.000000	
0.062500	0.000000	0.000000	0.000000	-30.348836	10.699059	12.213514	60.136844	-2.762633	-2.234825	39.144756	9.663323	-59.043746	0.000000	0.000000	
0.064394	0.000000	0.000000	0.000000	-28.780214	10.176928	12.369996	61.095398	-3.012766	-2.550613	52.274996	15.647677	-74.388346	0.000000	0.000000	
0.066288	0.000000	0.000000	0.000000	-35.156917	12.460067	13.652383	58.230952	-2.445667	-1.146715	-102.328458	6.132848	86.051810	0.000000	0.000000	
0.068182	0.000000	0.000000	0.000000	-46.295926	17.334563	25.763398	58.445539	-2.975539	2.685612	-115.458739	42.620640	108.241102	0.000000	0.000000	
0.070076	0.000000	0.000000	0.000000	-52.253868	20.266415	36.956096	59.807586	-4.776879	5.556004	-106.460473	68.048042	110.582202	0.000000	0.000000	
0.071970	0.000000	0.000000	0.000000	-53.684359	21.047212	40.029207	60.410189	-4.960444	6.923179	-99.729769	73.738036	108.786240	0.000000	0.000000	
0.073864	0.000000	0.000000	0.000000	-40.162326	14.646170	17.549455	58.445039	-1.414460	1.309235	-106.007769	20.672269	98.193734	0.000000	0.000000	
